<svg width="86" height="19" viewBox="0 0 86 19" fill="none" xmlns="http://www.w3.org/2000/svg">
<path d="M13.627 9.61556C13.6061 7.32864 15.7043 6.21914 15.7964 6.16631C14.607 4.60773 12.7643 4.39263 12.1193 4.37376C10.574 4.22658 9.07047 5.21154 8.28731 5.21154C7.48741 5.21154 6.2687 4.39263 4.96204 4.41527C3.28266 4.44168 1.70378 5.31721 0.845246 6.68332C-0.934652 9.46083 0.392942 13.5479 2.09746 15.7933C2.956 16.8914 3.94855 18.1255 5.25939 18.0802C6.53673 18.0349 7.01835 17.3443 8.55534 17.3443C10.084 17.3443 10.5321 18.0802 11.8639 18.0538C13.2375 18.0349 14.0961 16.948 14.9253 15.8385C15.9095 14.5819 16.3073 13.3365 16.3199 13.2724C16.2864 13.2535 13.6563 12.3478 13.627 9.61556Z" fill="white"/>
<path d="M11.1144 2.89828C11.8012 2.12465 12.2703 1.07176 12.1405 0C11.1479 0.037738 9.89988 0.618903 9.18373 1.37744C8.55135 2.04917 7.98597 3.1398 8.12836 4.16627C9.25074 4.24552 10.3983 3.65681 11.1144 2.89828Z" fill="white"/>
<path d="M32.1371 15.2693H30.353L29.3772 12.4993H25.9766L25.0469 15.2693H23.3088L26.676 5.83856H28.7574L32.1371 15.2693ZM29.0799 11.337L28.1962 8.87646C28.1041 8.61985 27.9282 8.03491 27.6727 7.10278H27.6392C27.5345 7.50658 27.3712 8.09906 27.145 8.87646L26.2697 11.337H29.0799Z" fill="white"/>
<path d="M40.79 11.7895C40.79 12.9443 40.4424 13.8576 39.743 14.5293C39.119 15.1294 38.3401 15.4237 37.4187 15.4237C36.4178 15.4237 35.7058 15.1029 35.266 14.4614V18.0314H33.5867V10.7027C33.5867 9.97435 33.5657 9.23469 33.5238 8.46861H34.998L35.0902 9.54791H35.1195C35.6807 8.73655 36.5308 8.32898 37.6616 8.32898C38.5536 8.32898 39.2907 8.64975 39.8854 9.27998C40.4927 9.91775 40.79 10.748 40.79 11.7895ZM39.0813 11.8386C39.0813 11.1744 38.918 10.631 38.5871 10.2046C38.227 9.75925 37.737 9.53282 37.1255 9.53282C36.7151 9.53282 36.3382 9.66113 35.999 9.90265C35.6639 10.1517 35.4378 10.4725 35.3414 10.8725C35.2912 11.0574 35.2619 11.2122 35.2619 11.3329V12.4688C35.2619 12.9594 35.4336 13.3821 35.7644 13.7217C36.0995 14.0614 36.535 14.2312 37.0753 14.2312C37.7077 14.2312 38.1935 14.0085 38.5495 13.5746C38.9054 13.1368 39.0813 12.5632 39.0813 11.8386Z" fill="white"/>
<path d="M49.4618 11.7895C49.4618 12.9443 49.1142 13.8576 48.4148 14.5293C47.7907 15.1294 47.0118 15.4237 46.0904 15.4237C45.0895 15.4237 44.3775 15.1029 43.9378 14.4614V18.0314H42.2584V10.7027C42.2584 9.97435 42.2375 9.23469 42.1956 8.46861H43.6698L43.7619 9.54791H43.7912C44.3524 8.73655 45.2026 8.32898 46.3333 8.32898C47.2254 8.32898 47.9625 8.64975 48.5571 9.27998C49.1644 9.91775 49.4618 10.748 49.4618 11.7895ZM47.7531 11.8386C47.7531 11.1744 47.5897 10.631 47.2589 10.2046C46.8987 9.75925 46.4087 9.53282 45.7973 9.53282C45.3868 9.53282 45.0099 9.66113 44.6707 9.90265C44.3357 10.1517 44.1179 10.4725 44.0132 10.8725C43.9629 11.0574 43.9336 11.2122 43.9336 11.3329V12.4688C43.9336 12.9594 44.1053 13.3821 44.4362 13.7217C44.7712 14.0614 45.2068 14.2312 45.747 14.2312C46.3794 14.2312 46.8736 14.0085 47.2212 13.5746C47.5813 13.1368 47.7531 12.5632 47.7531 11.8386Z" fill="white"/>
<path d="M59.1716 12.6276C59.1716 13.4314 58.8617 14.0842 58.2418 14.5862C57.5634 15.1371 56.6127 15.4088 55.394 15.4088C54.2674 15.4088 53.367 15.2126 52.6886 14.8201L53.078 13.5635C53.8151 13.9522 54.6234 14.1522 55.5029 14.1522C56.1353 14.1522 56.6295 14.0239 56.9771 13.7672C57.333 13.5106 57.5089 13.1672 57.5089 12.7408C57.5089 12.3558 57.3582 12.0388 57.0776 11.7785C56.7886 11.5181 56.307 11.2728 55.6327 11.0501C53.7816 10.4312 52.8686 9.52927 52.8686 8.34808C52.8686 7.57445 53.1953 6.94423 53.8403 6.44608C54.4852 5.95549 55.3438 5.70642 56.4117 5.70642C57.3624 5.70642 58.1539 5.8536 58.7863 6.15173L58.3591 7.37821C57.7644 7.0914 57.0985 6.94423 56.3447 6.94423C55.7584 6.94423 55.2893 7.08008 54.9543 7.33293C54.6779 7.57068 54.5355 7.84994 54.5355 8.18958C54.5355 8.55941 54.6988 8.87263 55.0171 9.11038C55.2935 9.33304 55.8044 9.57833 56.5415 9.83873C57.4419 10.1633 58.0995 10.5482 58.5266 10.9897C58.958 11.4237 59.1716 11.9747 59.1716 12.6276Z" fill="white"/>
<path d="M64.7243 9.60476H62.8733V12.9068C62.8733 13.7446 63.1999 14.1635 63.8491 14.1635C64.1464 14.1635 64.3935 14.1371 64.5945 14.0918L64.6448 15.2428C64.3097 15.3522 63.8784 15.4089 63.3423 15.4089C62.6764 15.4089 62.1655 15.2239 61.7886 14.8579C61.4117 14.4956 61.2274 13.8805 61.2274 13.0238V9.59344H60.1302V8.46507H61.2274V7.21972L62.8733 6.77441V8.46507H64.7243V9.60476Z" fill="white"/>
<path d="M73.0465 11.8162C73.0465 12.8616 72.7114 13.7182 72.0539 14.39C71.3587 15.0806 70.4373 15.424 69.2898 15.424C68.1842 15.424 67.3005 15.0919 66.6388 14.4352C65.9813 13.7786 65.6546 12.9408 65.6546 11.9332C65.6546 10.8803 65.9939 10.0161 66.6681 9.34818C67.3466 8.67644 68.2638 8.34058 69.4113 8.34058C70.5169 8.34058 71.409 8.67267 72.0832 9.33686C72.7282 9.97085 73.0465 10.8011 73.0465 11.8162ZM71.3085 11.8464C71.3085 11.22 71.1577 10.6916 70.8603 10.2426C70.5044 9.69914 70.0018 9.4312 69.3526 9.4312C68.6784 9.4312 68.1633 9.69914 67.8156 10.2426C67.5099 10.6879 67.3675 11.2313 67.3675 11.8766C67.3675 12.5031 67.5183 13.0389 67.8156 13.4805C68.1758 14.0239 68.6868 14.2918 69.3401 14.2918C69.9767 14.2918 70.4792 14.0164 70.8478 13.4692C71.1535 13.0088 71.3085 12.4729 71.3085 11.8464Z" fill="white"/>
<path d="M78.4976 9.79698C78.3342 9.77057 78.1583 9.75925 77.9657 9.75925C77.3794 9.75925 76.9187 9.95548 76.5962 10.3593C76.3198 10.7102 76.1774 11.1631 76.1774 11.699V15.269H74.498V10.6083C74.498 9.8234 74.4855 9.10638 74.4478 8.46861H75.9094L75.9722 9.77057H76.0225C76.1984 9.32526 76.4748 8.9592 76.8601 8.69126C77.237 8.44974 77.639 8.32898 78.0704 8.32898C78.2254 8.32898 78.3677 8.3403 78.4892 8.3554L78.4976 9.79698Z" fill="white"/>
<path d="M85.9999 11.548C85.9999 11.816 85.9789 12.0462 85.937 12.2311H80.9072C80.9282 12.9028 81.1711 13.4198 81.636 13.7708C82.0631 14.084 82.6076 14.2425 83.2819 14.2425C84.0273 14.2425 84.7058 14.1331 85.3172 13.9217L85.5811 14.9671C84.8649 15.2463 84.0231 15.3897 83.0515 15.3897C81.8831 15.3897 80.9617 15.0765 80.2958 14.4576C79.6299 13.8387 79.2949 13.0009 79.2949 11.9594C79.2949 10.9367 79.6048 10.0838 80.2288 9.40074C80.8821 8.6724 81.7574 8.31012 82.8631 8.31012C83.9477 8.31012 84.777 8.6724 85.3298 9.40074C85.7695 9.98945 85.9999 10.6989 85.9999 11.548ZM84.3959 11.1556C84.4084 10.7102 84.2953 10.3178 84.0692 9.99323C83.7802 9.57056 83.3321 9.35923 82.7374 9.35923C82.193 9.35923 81.7448 9.56302 81.4056 9.97059C81.1292 10.2951 80.9575 10.6914 80.9114 11.1442L84.3959 11.1556Z" fill="white"/>
</svg>
