<svg width="18" height="20" viewBox="0 0 18 20" fill="none" xmlns="http://www.w3.org/2000/svg">
<path d="M13.2057 7.63211L5.06934 2.97925" stroke="#0C1111" stroke-linecap="round" stroke-linejoin="round"/>
<path d="M17.2727 13.5492V6.3772C17.2724 6.06277 17.1887 5.75395 17.03 5.48173C16.8713 5.20951 16.6433 4.98345 16.3687 4.82624L10.0404 1.24022C9.76553 1.08285 9.45374 1 9.13635 1C8.81897 1 8.50718 1.08285 8.23232 1.24022L1.90404 4.82624C1.62945 4.98345 1.40138 5.20951 1.2427 5.48173C1.08402 5.75395 1.00033 6.06277 1 6.3772V13.5492C1.00033 13.8637 1.08402 14.1725 1.2427 14.4447C1.40138 14.7169 1.62945 14.943 1.90404 15.1002L8.23232 18.6862C8.50718 18.8436 8.81897 18.9264 9.13635 18.9264C9.45374 18.9264 9.76553 18.8436 10.0404 18.6862L16.3687 15.1002C16.6433 14.943 16.8713 14.7169 17.03 14.4447C17.1887 14.1725 17.2724 13.8637 17.2727 13.5492Z" stroke="#0C1111" stroke-linecap="round" stroke-linejoin="round"/>
<path d="M1.24414 5.44495L9.1364 9.9723L17.0287 5.44495" stroke="#0C1111" stroke-linecap="round" stroke-linejoin="round"/>
<path d="M9.13574 18.9999V9.96313" stroke="#0C1111" stroke-linecap="round" stroke-linejoin="round"/>
</svg>
