<svg width="21" height="20" viewBox="0 0 21 20" fill="none" xmlns="http://www.w3.org/2000/svg">
<path d="M8.00474 18.9999C8.55748 18.9999 9.00557 18.5555 9.00557 18.0074C9.00557 17.4592 8.55748 17.0149 8.00474 17.0149C7.45199 17.0149 7.00391 17.4592 7.00391 18.0074C7.00391 18.5555 7.45199 18.9999 8.00474 18.9999Z" stroke="#0C1111" stroke-linecap="round" stroke-linejoin="round"/>
<path d="M17.0145 19C17.5672 19 18.0153 18.5556 18.0153 18.0075C18.0153 17.4594 17.5672 17.015 17.0145 17.015C16.4618 17.015 16.0137 17.4594 16.0137 18.0075C16.0137 18.5556 16.4618 19 17.0145 19Z" stroke="#0C1111" stroke-linecap="round" stroke-linejoin="round"/>
<path d="M1 1H4.45741L6.77388 12.4772C6.85292 12.8719 7.06941 13.2264 7.38545 13.4787C7.70149 13.7309 8.09695 13.865 8.50259 13.8573H16.9041C17.3097 13.865 17.7052 13.7309 18.0212 13.4787C18.3373 13.2264 18.5538 12.8719 18.6328 12.4772L20.0158 5.28575H5.32177" stroke="#0C1111" stroke-linecap="round" stroke-linejoin="round"/>
</svg>
