<svg width="25" height="23" viewBox="0 0 25 23" fill="none" xmlns="http://www.w3.org/2000/svg">
<path d="M10.072 22C10.7114 22 11.2299 21.4816 11.2299 20.8421C11.2299 20.2026 10.7114 19.6842 10.072 19.6842C9.43247 19.6842 8.91406 20.2026 8.91406 20.8421C8.91406 21.4816 9.43247 22 10.072 22Z" stroke="white" stroke-width="2" stroke-linecap="round" stroke-linejoin="round"/>
<path d="M20.4938 22C21.1333 22 21.6517 21.4816 21.6517 20.8421C21.6517 20.2026 21.1333 19.6842 20.4938 19.6842C19.8543 19.6842 19.3359 20.2026 19.3359 20.8421C19.3359 21.4816 19.8543 22 20.4938 22Z" stroke="white" stroke-width="2" stroke-linecap="round" stroke-linejoin="round"/>
<path d="M1.96875 1H5.96875L8.64875 14.39C8.74019 14.8504 8.99066 15.264 9.3563 15.5583C9.72193 15.8527 10.1794 16.009 10.6488 16H20.3687C20.8381 16.009 21.2956 15.8527 21.6612 15.5583C22.0268 15.264 22.2773 14.8504 22.3687 14.39L23.9688 6.00001H6.96875" stroke="white" stroke-width="2" stroke-linecap="round" stroke-linejoin="round"/>
</svg>
