<svg width="18" height="17" viewBox="0 0 18 17" fill="none" xmlns="http://www.w3.org/2000/svg">
<path d="M4.86138 8.82902H12.8032C14.5563 8.82902 15.9792 7.45377 15.9792 5.76532C15.9792 4.07686 14.5529 2.70161 12.8032 2.70161H5.05541C4.86138 1.55783 3.75165 0.798696 2.60786 1.04721C1.58321 1.26846 0.888772 2.24885 1.01473 3.28713C1.15771 4.45134 2.24022 5.2479 3.384 5.05728C4.24184 4.91089 4.91244 4.24029 5.05883 3.38245H12.8066C14.1818 3.38245 15.3018 4.45134 15.3018 5.76535C15.3018 7.07933 14.1819 8.14824 12.8066 8.14824H4.86138C3.10827 8.14824 1.68192 9.5235 1.68192 11.2119C1.68192 12.9004 3.10824 14.2757 4.85796 14.2757H10.3896L8.93269 15.736C8.79652 15.8654 8.79314 16.0832 8.9259 16.216C9.05866 16.3488 9.27312 16.3556 9.40588 16.2228C9.40929 16.2194 9.41267 16.216 9.41267 16.216L11.4517 14.1769C11.5845 14.0442 11.5845 13.8297 11.4517 13.697L9.41267 11.6545C9.2765 11.5251 9.06204 11.5285 8.93269 11.6613C8.80673 11.7941 8.80673 12.0017 8.93269 12.1345L10.3931 13.5948H4.86138C3.48271 13.5948 2.36277 12.526 2.36277 11.2119C2.36277 9.89794 3.48271 8.82902 4.86138 8.82902ZM3.04358 4.40028C2.29128 4.40028 1.68192 3.79095 1.68192 3.03862C1.68192 2.28632 2.29125 1.67696 3.04358 1.67696C3.79588 1.67696 4.40524 2.28629 4.40524 3.03862C4.40524 3.79092 3.79588 4.40028 3.04358 4.40028Z" fill="#F2F2F2" stroke="#F2F2F2" stroke-width="0.4"/>
<path d="M14.9576 11.8894C13.8309 11.8894 12.9152 12.8051 12.9152 13.9319C12.9152 15.0586 13.8309 15.9743 14.9576 15.9743C16.0844 15.9743 17.0001 15.0586 17.0001 13.9319C17.0001 12.8051 16.0878 11.8928 14.9576 11.8894ZM14.9576 15.2935C14.2053 15.2935 13.596 14.6842 13.596 13.9319C13.596 13.1795 14.2053 12.5702 14.9576 12.5702C15.71 12.5702 16.3193 13.1795 16.3193 13.9319C16.3193 14.6842 15.71 15.2935 14.9576 15.2935Z" fill="#F2F2F2" stroke="#F2F2F2" stroke-width="0.4"/>
</svg>
