<svg width="104" height="22" viewBox="0 0 104 22" fill="none" xmlns="http://www.w3.org/2000/svg">
<path fill-rule="evenodd" clip-rule="evenodd" d="M0.43264 0.332016C0.15808 0.596577 0 0.999006 0 1.52813V20.2598C0 20.7851 0.15808 21.1913 0.44096 21.4447L0.51584 21.5006L12.2304 11.0039V10.7691L0.50336 0.276123L0.43264 0.332016Z" fill="url(#paint0_linear_12_29)"/>
<path fill-rule="evenodd" clip-rule="evenodd" d="M16.1284 14.5177L12.2222 11.015V10.7691L16.1326 7.26648L16.2158 7.31492L20.8417 9.66988C22.1646 10.3369 22.1646 11.4398 20.8417 12.118L16.2158 14.4692L16.1284 14.5177Z" fill="url(#paint1_linear_12_29)"/>
<path fill-rule="evenodd" clip-rule="evenodd" d="M16.2157 14.4691L12.2221 10.892L0.432617 21.4558C0.865257 21.8694 1.5891 21.9178 2.4003 21.5116L16.2157 14.4691Z" fill="url(#paint2_linear_12_29)"/>
<path fill-rule="evenodd" clip-rule="evenodd" d="M16.2157 7.31502L2.39615 0.283672C1.58911 -0.129937 0.861107 -0.0740437 0.428467 0.339565L12.2221 10.8922L16.2157 7.31502Z" fill="url(#paint3_linear_12_29)"/>
<path fill-rule="evenodd" clip-rule="evenodd" d="M26.3286 10.2998C26.3286 7.30023 29.1449 4.85583 32.4937 4.85583C34.3449 4.85583 35.6637 5.50792 36.6579 6.35377L35.4848 7.40456C34.7734 6.80837 33.8125 6.34259 32.4896 6.34259C30.0435 6.34259 28.1299 8.10509 28.1299 10.2961C28.1299 12.4871 30.0435 14.2533 32.4854 14.2533C34.0704 14.2533 34.9731 13.6832 35.5513 13.1653C36.0256 12.7405 36.3376 12.1294 36.4582 11.2947H32.4896V9.81169H38.0765C38.1347 10.0762 38.168 10.3967 38.168 10.7395C38.168 11.8536 37.8269 13.2361 36.7286 14.2198C35.6595 15.2147 34.2992 15.7475 32.4896 15.7475C29.1408 15.7438 26.3245 13.3031 26.3286 10.2998ZM42.6857 8.73109C40.5225 8.73109 38.7545 10.2067 38.7545 12.2337C38.7545 14.2533 40.5184 15.7364 42.6857 15.7364C44.8489 15.7364 46.6128 14.2496 46.6128 12.23C46.6128 10.2067 44.8489 8.73109 42.6857 8.73109ZM42.6857 14.3614C41.5001 14.3614 40.4768 13.4857 40.4768 12.2374C40.4768 10.9743 41.5001 10.1135 42.6857 10.1135C43.8713 10.1135 44.8947 10.9743 44.8947 12.2374C44.8947 13.4857 43.8713 14.3614 42.6857 14.3614ZM51.2553 8.73109C49.0921 8.73109 47.3283 10.2067 47.3283 12.2337C47.3283 14.2533 49.0921 15.7364 51.2553 15.7364C53.4185 15.7364 55.1824 14.2496 55.1824 12.23C55.1824 10.2067 53.4227 8.73109 51.2553 8.73109ZM51.2553 14.3614C50.0697 14.3614 49.0464 13.4857 49.0464 12.2374C49.0464 10.9743 50.0697 10.1135 51.2553 10.1135C52.4409 10.1135 53.4643 10.9743 53.4643 12.2374C53.4643 13.4857 52.4409 14.3614 51.2553 14.3614ZM61.7718 8.94721V9.51732H61.7136C61.3309 9.10371 60.5862 8.73481 59.6544 8.73481C57.6992 8.73481 55.9021 10.2775 55.9021 12.2561C55.9021 14.2198 57.695 15.7475 59.6544 15.7475C60.5862 15.7475 61.3267 15.3749 61.7136 14.9501H61.7718V15.4532C61.7718 16.7946 60.9731 17.51 59.6835 17.51C58.631 17.51 57.9779 16.8319 57.7117 16.2617L56.2141 16.8207C56.6425 17.7485 57.7865 18.8924 59.6835 18.8924C61.6969 18.8924 63.4025 17.8305 63.4025 15.2408V8.94348L61.7718 8.94721ZM59.8041 14.3614C58.6185 14.3614 57.6243 13.4708 57.6243 12.2486C57.6243 11.0153 58.6185 10.1098 59.8041 10.1098C60.9731 10.1098 61.8925 11.0115 61.8925 12.2486C61.8925 13.4708 60.9731 14.3614 59.8041 14.3614ZM64.5881 5.22846H66.3104V15.5314H64.5881V5.22846ZM71.0237 14.3614C70.1501 14.3614 69.5261 14.0037 69.1267 13.2994L74.36 11.3581L74.1811 10.9594C73.8566 10.1769 72.8624 8.73109 70.8323 8.73109C68.8189 8.73109 67.1424 10.1508 67.1424 12.2374C67.1424 14.2012 68.8022 15.7401 71.0278 15.7401C72.8208 15.7401 73.8608 14.7601 74.2893 14.1863L72.9539 13.3888C72.5046 13.9776 71.8973 14.3651 71.0237 14.3614ZM70.8905 10.0874C71.5728 10.0874 72.151 10.393 72.3424 10.8289L68.8438 12.1294C68.7981 10.7768 70.0128 10.0874 70.8905 10.0874ZM81.9104 5.22846H77.7961V15.5314H79.5142V11.6263H81.9104C83.8115 11.6263 85.6835 10.393 85.6835 8.42554C85.6835 6.46556 83.8157 5.22846 81.9104 5.22846ZM81.952 10.1918H79.5101V6.65932H81.952C83.2333 6.65932 83.9654 7.61323 83.9654 8.42554C83.9696 9.22667 83.2374 10.1918 81.952 10.1918ZM88.3459 15.5314V5.22846H86.6278V15.5314H88.3459ZM96.0586 15.5128V11.563C96.0586 9.73344 94.5318 8.71246 92.5642 8.71246C91.3245 8.71246 90.0349 9.20432 89.5024 10.2886L91.025 10.8588C91.3494 10.2886 91.9568 10.1023 92.5933 10.1023C93.4794 10.1023 94.3821 10.5793 94.3946 11.4289V11.5369C94.0826 11.3767 93.4211 11.1382 92.6058 11.1382C90.9626 11.1382 89.2902 11.9468 89.2902 13.4559C89.2902 14.8346 90.6381 15.7214 92.1482 15.7214C93.3046 15.7214 93.937 15.2594 94.3363 14.7154H94.3946V15.5128H96.0586ZM92.3562 14.3614C91.7946 14.3614 91.0083 14.108 91.0083 13.4895C91.0083 12.692 91.9859 12.3865 92.8304 12.3865C93.5875 12.3865 93.9411 12.5318 94.3987 12.7293C94.2697 13.6534 93.3962 14.3502 92.3562 14.3614ZM102.095 8.93976L100.127 13.4037H100.069L98.0262 8.93976H96.175L99.2368 15.1849L97.4896 18.6577H99.2784L104 8.93976H102.095Z" fill="white"/>
<defs>
<linearGradient id="paint0_linear_12_29" x1="11.1829" y1="1.32507" x2="-7.28441" y2="6.81856" gradientUnits="userSpaceOnUse">
<stop stop-color="#00A0FF"/>
<stop offset="0.007" stop-color="#00A1FF"/>
<stop offset="0.26" stop-color="#00BEFF"/>
<stop offset="0.512" stop-color="#00D2FF"/>
<stop offset="0.76" stop-color="#00DFFF"/>
<stop offset="1" stop-color="#00E3FF"/>
</linearGradient>
<linearGradient id="paint1_linear_12_29" x1="22.5693" y1="10.8937" x2="-0.315678" y2="10.8937" gradientUnits="userSpaceOnUse">
<stop stop-color="#FFE000"/>
<stop offset="0.409" stop-color="#FFBD00"/>
<stop offset="0.775" stop-color="#FFA500"/>
<stop offset="1" stop-color="#FF9C00"/>
</linearGradient>
<linearGradient id="paint2_linear_12_29" x1="14.0435" y1="12.8375" x2="1.29686" y2="36.7884" gradientUnits="userSpaceOnUse">
<stop stop-color="#FF3A44"/>
<stop offset="1" stop-color="#C31162"/>
</linearGradient>
<linearGradient id="paint3_linear_12_29" x1="-2.53656" y1="-5.8969" x2="3.14945" y2="4.79889" gradientUnits="userSpaceOnUse">
<stop stop-color="#32A071"/>
<stop offset="0.069" stop-color="#2DA771"/>
<stop offset="0.476" stop-color="#15CF74"/>
<stop offset="0.801" stop-color="#06E775"/>
<stop offset="1" stop-color="#00F076"/>
</linearGradient>
</defs>
</svg>
