<svg width="21" height="18" viewBox="0 0 21 18" fill="none" xmlns="http://www.w3.org/2000/svg">
<path d="M11.0703 16.7848L18.5119 9.34322C20.3404 7.51475 20.6102 4.50664 18.8798 2.58506C18.4464 2.10234 17.9192 1.713 17.3303 1.44077C16.7414 1.16855 16.1033 1.01917 15.4548 1.00173C14.8062 0.984287 14.161 1.09916 13.5583 1.33934C12.9557 1.57952 12.4083 1.93997 11.9495 2.39869L10.5508 3.79738L9.34322 2.58975C7.51476 0.761279 4.50664 0.491516 2.58506 2.22187C2.10234 2.6553 1.713 3.18253 1.44077 3.7714C1.16855 4.36027 1.01917 4.99843 1.00173 5.64694C0.984287 6.29545 1.09916 6.94072 1.33934 7.54337C1.57952 8.14602 1.93997 8.69341 2.39869 9.15216L10.0313 16.7848C10.1691 16.9226 10.356 17 10.5508 17C10.7457 17 10.9326 16.9226 11.0703 16.7848V16.7848Z" stroke="#0C1111" stroke-linecap="round" stroke-linejoin="round"/>
</svg>
