<svg width="20" height="18" viewBox="0 0 20 18" fill="none" xmlns="http://www.w3.org/2000/svg">
<path d="M15.9304 10.1311C15.3957 10.1311 14.9844 10.5424 14.9844 11.036V15.2724H5.64776V11.036C5.64776 10.5424 5.23646 10.1722 4.74289 10.1722C4.24932 10.1722 3.83801 10.5424 3.83801 11.036V16.1362C3.83801 16.6298 4.24932 16.9999 4.74289 16.9999H15.8893C16.3829 16.9999 16.7942 16.6298 16.7942 16.1362V11.036C16.8353 10.5424 16.424 10.1311 15.9304 10.1311Z" fill="#F2F2F2" stroke="black" stroke-width="0.4"/>
<path d="M19.3443 8.77371L10.9948 1.24678C10.6246 0.917739 10.0488 0.917739 9.71972 1.24678L1.28792 8.77371C1.12339 8.93823 1 9.18502 1 9.4318C1 9.67859 1.12339 9.92537 1.28792 10.0899C1.45244 10.2544 1.69922 10.3367 1.94601 10.3367C2.19279 10.3367 2.39845 10.2544 2.6041 10.0899L10.3367 3.09767L18.0693 10.0488C18.2338 10.2133 18.4806 10.2955 18.7273 10.2955C18.9741 10.2955 19.1798 10.2133 19.3854 10.0488C19.55 9.88424 19.6734 9.63745 19.6734 9.39067C19.6734 9.18502 19.55 8.93823 19.3443 8.77371Z" fill="#F2F2F2" stroke="black" stroke-width="0.4"/>
</svg>
