<svg width="18" height="18" viewBox="0 0 18 18" fill="none" xmlns="http://www.w3.org/2000/svg">
<circle cx="9" cy="9" r="9" fill="#E0E0E0"/>
<path fill-rule="evenodd" clip-rule="evenodd" d="M6.32112 5.36999C6.12348 5.17713 5.80305 5.17713 5.60542 5.36999C5.40778 5.56285 5.40778 5.87553 5.60542 6.06839L8.60944 8.99983L5.60465 11.932C5.40701 12.1249 5.40701 12.4376 5.60465 12.6304C5.80228 12.8233 6.12271 12.8233 6.32035 12.6304L9.32514 9.69824L12.0946 12.4008C12.2922 12.5936 12.6127 12.5936 12.8103 12.4008C13.0079 12.2079 13.0079 11.8952 12.8103 11.7024L10.0408 8.99983L12.8095 6.29805C13.0072 6.10519 13.0072 5.7925 12.8095 5.59964C12.6119 5.40678 12.2915 5.40678 12.0938 5.59964L9.32514 8.30143L6.32112 5.36999Z" fill="#333333"/>
</svg>
