<svg width="195" height="40" viewBox="0 0 195 40" fill="none" xmlns="http://www.w3.org/2000/svg">
<path d="M74.512 9.72729H55.2952L53.2009 31.193L72.3782 31.2061L72.9841 25.3174H61.4329L62.3944 15.5768H66.2668L63.514 23.411L71.1928 23.4372L73.9324 15.616L74.512 9.72729Z" fill="#0C1111"/>
<path d="M31.8861 31.2193L34.3623 5.79731L32.4261 5.78426L32.9793 0H42.647L40.9084 17.627L45.5052 9.72747L53.2235 9.71442L48.5214 17.5486L52.4464 17.5225L50.3127 39.0666H42.6207L44.1749 23.4373H40.2235L39.4859 31.2193H31.8861Z" fill="#0C1111"/>
<path d="M22.0757 31.2191L29.7545 31.193L31.8882 9.72729H24.2094L22.0757 31.2191Z" fill="#0C1111"/>
<path d="M0.804321 31.2193L3.28051 5.79732L1.29166 5.78426L1.85802 0H11.552L9.03634 25.3828H12.8823L13.8438 15.6162H11.9208L12.474 9.71442H22.089L19.9816 31.2193H0.804321Z" fill="#0C1111"/>
<path fill-rule="evenodd" clip-rule="evenodd" d="M0.632219 32.4466L41.2128 32.5249L40.6201 39.2493L0 39.1709L0.632219 32.4335V32.4466ZM195 9.93627H175.757L173.649 31.4412H181.289L182.856 15.7728H186.689L186.307 19.6899H194.025L195 9.85793V9.93627ZM173.663 9.93627L173.083 15.825L170.33 23.6592H162.665L165.417 15.825H161.545L160.584 25.5655H172.135L171.529 31.4542H152.352L154.446 10.0016L173.663 9.93627ZM138.693 31.4412H150.231L150.771 25.5786H146.925L147.887 15.8119H151.838L152.404 9.94933H148.453L148.822 6.03223H141.13L138.693 31.4412ZM138.693 9.9885L136.612 31.4673H128.946L130.474 15.7989H126.602L125.127 31.4673H117.514L119.555 9.9885H138.693ZM117.421 9.9885H98.231L96.1499 31.4412H115.327L115.907 25.5786H104.369L105.37 15.838H109.242L106.489 23.6723H114.168L116.921 15.838L117.501 9.94933L117.421 9.9885ZM96.1499 9.9885L95.3728 17.7444H87.6018L87.7994 15.8511H83.9797L82.9787 25.5786H86.8247L87.0355 23.607H94.767L93.9635 31.4412H74.7467L76.8804 9.9885H96.1499Z" fill="#E30613"/>
</svg>
