<svg width="120" height="25" viewBox="0 0 120 25" fill="none" xmlns="http://www.w3.org/2000/svg">
<g clip-path="url(#clip0_0_22)">
<path d="M45.8522 6.10815H34.0264L32.7377 19.5855L44.5391 19.5937L44.9119 15.8965H37.8035L38.3952 9.78082H40.7782L39.0842 14.6996L43.8096 14.716L45.4955 9.80541L45.8522 6.10815Z" fill="white"/>
<path d="M19.6232 19.6019L21.147 3.6406L19.9555 3.6324L20.2959 0.000732422H26.2453L25.1753 11.0679L28.0041 6.10817L32.7539 6.09997L29.8603 11.0187L32.2757 11.0023L30.9626 24.5289H26.229L27.1855 14.716H24.7539L24.3 19.6019H19.6232Z" fill="white"/>
<path d="M13.5845 19.6019L18.3099 19.5855L19.623 6.10815H14.8975L13.5845 19.6019Z" fill="white"/>
<path d="M0.494507 19.6019L2.01832 3.6406L0.794406 3.6324L1.14294 0.000732422H7.10849L5.56036 15.9375H7.92713L8.51882 9.80542H7.33544L7.67587 6.09997H13.5928L12.2959 19.6019H0.494507Z" fill="white"/>
<path fill-rule="evenodd" clip-rule="evenodd" d="M0.389058 20.3726L25.3617 20.4218L24.997 24.6437L0 24.5945L0.389058 20.3644V20.3726ZM120 6.23938H108.158L106.861 19.7413H111.562L112.527 9.90384H114.886L114.65 12.3632H119.4L120 6.19019V6.23938ZM106.869 6.23938L106.513 9.93664L104.819 14.8554H100.101L101.795 9.93664H99.4124L98.8207 16.0523H105.929L105.556 19.7495H93.7548L95.0436 6.28037L106.869 6.23938ZM85.3495 19.7413H92.4498L92.7822 16.0605H90.4154L91.0071 9.92844H93.4387L93.7872 6.24758H91.3556L91.5826 3.78821H86.849L85.3495 19.7413ZM85.3495 6.27217L84.0689 19.7577H79.3516L80.2918 9.92024H77.9088L77.001 19.7577H72.3161L73.5724 6.27217H85.3495ZM72.2594 6.27217H60.4498L59.1692 19.7413H70.9706L71.3273 16.0605H64.227L64.843 9.94483H67.2259L65.5319 14.8636H70.2573L71.9514 9.94483L72.308 6.24758L72.2594 6.27217ZM59.1692 6.27217L58.691 11.1417H53.9088L54.0304 9.95303H51.6798L51.0638 16.0605H53.4306L53.5603 14.8226H58.3181L57.8237 19.7413H45.998L47.311 6.27217H59.1692Z" fill="#E30613"/>
</g>
<defs>
<clipPath id="clip0_0_22">
<rect width="120" height="24.6429" fill="white" transform="translate(0 0.000732422)"/>
</clipPath>
</defs>
</svg>
