<svg width="41" height="40" viewBox="0 0 41 40" fill="none" xmlns="http://www.w3.org/2000/svg">
<path d="M20.3407 0L22.8777 4.19699L26.6052 0.97887L27.7034 5.7439L32.2564 3.81966L31.8084 8.68629L36.7413 8.2443L34.7909 12.7362L39.6208 13.8197L36.3589 17.497L40.613 20L36.3589 22.503L39.6208 26.1803L34.7909 27.2638L36.7413 31.7557L31.8084 31.3137L32.2564 36.1803L27.7034 34.2561L26.6052 39.0211L22.8777 35.803L20.3407 40L17.8036 35.803L14.0762 39.0211L12.9779 34.2561L8.42491 36.1803L8.87292 31.3137L3.94003 31.7557L5.89046 27.2638L1.06056 26.1803L4.32249 22.503L0.0683594 20L4.32249 17.497L1.06056 13.8197L5.89046 12.7362L3.94003 8.2443L8.87292 8.68629L8.42491 3.81966L12.9779 5.7439L14.0762 0.97887L17.8036 4.19699L20.3407 0Z" fill="#CCFF33"/>
</svg>
