<svg width="18" height="18" viewBox="0 0 18 18" fill="none" xmlns="http://www.w3.org/2000/svg">
<path d="M10.3883 6H8.17855C8.0165 6 7.88391 6.13696 7.88391 6.30435V8.73913H7.29464C7.13259 8.73913 7 8.87609 7 9.04348C7 9.21087 7.13259 9.34783 7.29464 9.34783H7.88391V10.0752H7.29464C7.13259 10.0752 7 10.2122 7 10.3796C7 10.547 7.13259 10.6839 7.29464 10.6839H7.88391V12.6957C7.88391 12.863 8.0165 13 8.17855 13C8.3406 13 8.47319 12.863 8.47319 12.6957V10.6839H10.2675C10.4296 10.6839 10.5622 10.547 10.5622 10.3796C10.5622 10.2122 10.4296 10.0752 10.2675 10.0752H8.47319V9.34783H10.3883C11.4461 9.34783 12 8.50478 12 7.67391C12 6.84304 11.4461 6 10.3883 6ZM10.3883 8.73913H8.47319V6.6087H10.3883C10.7065 6.6087 10.9717 6.7213 11.1544 6.93435C11.3164 7.12304 11.4107 7.39391 11.4107 7.67391C11.4107 8.20348 11.0925 8.73913 10.3883 8.73913Z" fill="#F2F2F2" stroke="#F2F2F2" stroke-width="0.2"/>
<path d="M9 1C4.58776 1 1 4.58776 1 9C1 13.4122 4.58776 17 9 17C13.4122 17 17 13.4122 17 9C17 4.58776 13.4122 1 9 1ZM9 16.1837C5.04082 16.1837 1.81633 12.9592 1.81633 9C1.81633 5.04082 5.04082 1.81633 9 1.81633C12.9592 1.81633 16.1837 5.04082 16.1837 9C16.1837 12.9592 12.9592 16.1837 9 16.1837Z" fill="#F2F2F2" stroke="#F2F2F2" stroke-width="0.2"/>
</svg>
