<svg width="18" height="17" viewBox="0 0 18 17" fill="none" xmlns="http://www.w3.org/2000/svg">
<path d="M13.5995 15.6651C13.4872 15.6655 13.3777 15.6312 13.2865 15.5669L8.99917 12.5148L4.71186 15.5669C4.62027 15.6321 4.50992 15.6671 4.39677 15.6667C4.28362 15.6663 4.17353 15.6305 4.08242 15.5646C3.99131 15.4988 3.9239 15.4061 3.88993 15.3001C3.85597 15.1942 3.85721 15.0803 3.89347 14.9751L5.56559 10.1119L1.23195 7.19367C1.13808 7.13053 1.06723 7.03957 1.02976 6.93408C0.992284 6.82859 0.990148 6.71409 1.02366 6.60732C1.05718 6.50056 1.12458 6.40711 1.21603 6.34063C1.30749 6.27416 1.41819 6.23815 1.53197 6.23785H6.87835L8.4918 1.3622C8.52656 1.25694 8.59437 1.16519 8.68552 1.10012C8.77668 1.03505 8.88647 1 8.99917 1C9.11186 1 9.22166 1.03505 9.31281 1.10012C9.40396 1.16519 9.47178 1.25694 9.50654 1.3622L11.12 6.23949H16.4664C16.5803 6.23944 16.6912 6.2752 16.783 6.34154C16.8747 6.40789 16.9424 6.50133 16.9761 6.60818C17.0098 6.71503 17.0078 6.82968 16.9704 6.93533C16.9329 7.04098 16.862 7.13209 16.7681 7.19531L12.4327 10.1119L14.1039 14.9738C14.1309 15.0525 14.1386 15.1364 14.1261 15.2186C14.1136 15.3007 14.0814 15.3788 14.0321 15.4464C13.9829 15.5139 13.9179 15.569 13.8427 15.607C13.7675 15.645 13.6841 15.6649 13.5995 15.6651Z" stroke="#F2F2F2"/>
</svg>
