<svg width="145" height="146" viewBox="0 0 145 146" fill="none" xmlns="http://www.w3.org/2000/svg">
<path fill-rule="evenodd" clip-rule="evenodd" d="M0 73C0 32.7473 32.523 0 72.5 0C112.477 0 145 32.7473 145 73C145 113.252 112.477 146 72.5 146C32.523 146 0 113.252 0 73ZM8.49609 73C8.49609 108.535 37.208 137.445 72.5 137.445C107.792 137.445 136.504 108.535 136.504 73C136.504 37.4646 107.792 8.55468 72.5 8.55468C37.208 8.55468 8.49609 37.4646 8.49609 73ZM41.4286 81.3429L75.9523 31.2857L72.5 64.6571H103.571L69.0476 114.714L72.5 81.3429H41.4286Z" fill="#FFD400"/>
</svg>
