<svg width="33" height="33" viewBox="0 0 33 33" fill="none" xmlns="http://www.w3.org/2000/svg">
<g clip-path="url(#clip0_12_65)">
<path d="M16.5 33C25.6127 33 33 25.6127 33 16.5C33 7.3873 25.6127 0 16.5 0C7.3873 0 0 7.3873 0 16.5C0 25.6127 7.3873 33 16.5 33Z" fill="white"/>
<path d="M14.8502 14.5588V13.7824C14.5914 13.7177 14.2679 13.7177 14.009 13.7177C11.2914 13.7177 8.89727 15.4647 8.05609 18.0529C7.21492 20.6412 8.25021 23.4235 10.4502 24.9765C8.1208 22.4529 8.25021 18.5059 10.7737 16.1765C11.8737 15.1412 13.362 14.5588 14.8502 14.5588Z" fill="#25F4EE"/>
<path d="M14.9796 23.6176C16.5326 23.6176 17.762 22.3882 17.8267 20.9V7.31176H20.2855C20.2208 7.05293 20.2208 6.7294 20.2208 6.47058H16.8561V19.9941C16.7914 21.5471 15.562 22.7118 14.009 22.7118C13.5561 22.7118 13.1031 22.5823 12.7149 22.3882C13.2326 23.1647 14.0737 23.6176 14.9796 23.6176ZM24.9443 11.9059V11.1294C24.0384 11.1294 23.1326 10.8706 22.3561 10.3529C23.0678 11.1294 23.9737 11.7118 24.9443 11.9059Z" fill="#25F4EE"/>
<path d="M22.3561 10.353C21.5796 9.51178 21.1914 8.41178 21.1914 7.24707H20.2855C20.5443 8.54119 21.3208 9.70589 22.3561 10.353ZM14.009 17.0177C12.4561 17.0177 11.162 18.3118 11.162 19.8647C11.162 20.9 11.7443 21.8706 12.6502 22.3882C11.7443 21.0941 12.0032 19.3471 13.2973 18.4412C13.7502 18.1177 14.3973 17.9235 14.9796 17.9235C15.2385 17.9235 15.562 17.9882 15.8208 18.053V14.6235C15.562 14.5588 15.2385 14.5588 14.9796 14.5588H14.8502V17.2118C14.5914 17.0824 14.3326 17.0177 14.009 17.0177Z" fill="#FE2C55"/>
<path d="M24.9443 11.9059V14.5588C23.262 14.5588 21.6443 14.0412 20.2208 13.0059V19.8647C20.2208 23.2941 17.4384 26.0765 14.009 26.0765C12.7149 26.0765 11.4855 25.6882 10.4502 24.9765C12.7796 27.5 16.7267 27.6294 19.2502 25.3C20.5443 24.1353 21.2561 22.4529 21.2561 20.7706V13.9118C22.6149 14.8824 24.2973 15.4 25.9796 15.4V12.0353C25.5914 12.0353 25.2678 11.9706 24.9443 11.9059Z" fill="#FE2C55"/>
<path d="M20.2208 19.8647V13.0059C21.5796 13.9765 23.262 14.4941 24.9443 14.4941V11.8412C23.9737 11.6471 23.0679 11.1294 22.3561 10.353C21.2561 9.64119 20.5443 8.54119 20.2855 7.24707H17.8267V20.8353C17.762 22.3882 16.4679 23.6177 14.8502 23.553C14.009 23.4882 13.1679 23.1 12.6502 22.3882C11.2914 21.6765 10.709 19.9294 11.4855 18.5706C12.0031 17.6647 12.909 17.0824 14.009 17.0824C14.2679 17.0824 14.5914 17.1471 14.8502 17.2118V14.5588C11.4208 14.6235 8.70315 17.4706 8.76786 20.9C8.76786 22.453 9.41491 23.9412 10.4502 25.0412C11.4855 25.753 12.7796 26.1412 14.009 26.0765C17.4384 26.1412 20.2208 23.3588 20.2208 19.8647Z" fill="black"/>
</g>
<defs>
<clipPath id="clip0_12_65">
<rect width="33" height="33" fill="white"/>
</clipPath>
</defs>
</svg>
