<svg width="33" height="33" viewBox="0 0 33 33" fill="none" xmlns="http://www.w3.org/2000/svg">
<g clip-path="url(#clip0_12_57)">
<path d="M16.5 33C25.6127 33 33 25.6127 33 16.5C33 7.3873 25.6127 0 16.5 0C7.3873 0 0 7.3873 0 16.5C0 25.6127 7.3873 33 16.5 33Z" fill="#4D76A1"/>
<path fill-rule="evenodd" clip-rule="evenodd" d="M15.8767 23.7367H17.1718C17.1718 23.7367 17.563 23.6938 17.7627 23.4785C17.9465 23.2808 17.9406 22.9096 17.9406 22.9096C17.9406 22.9096 17.9153 21.1719 18.7218 20.916C19.5169 20.664 20.5378 22.5955 21.6199 23.3382C22.4382 23.9003 23.0599 23.777 23.0599 23.777L25.9533 23.7367C25.9533 23.7367 27.4669 23.6435 26.7492 22.4534C26.6904 22.3561 26.3312 21.5731 24.5979 19.9642C22.7838 18.2803 23.0267 18.5527 25.2121 15.64C26.543 13.8661 27.0751 12.7831 26.9089 12.3192C26.7504 11.8775 25.7715 11.9942 25.7715 11.9942L22.5137 12.0145C22.5137 12.0145 22.2723 11.9816 22.0931 12.0887C21.9181 12.1937 21.8055 12.4384 21.8055 12.4384C21.8055 12.4384 21.2899 13.8111 20.6022 14.9785C19.1516 17.4418 18.5715 17.5718 18.3345 17.4188C17.783 17.0624 17.9206 15.9867 17.9206 15.2226C17.9206 12.8354 18.2827 11.8401 17.2156 11.5825C16.8615 11.4969 16.6009 11.4404 15.6953 11.4313C14.5329 11.4192 13.549 11.4348 12.9919 11.7078C12.6213 11.8892 12.3354 12.2937 12.5096 12.3169C12.7249 12.3457 13.2125 12.4484 13.4711 12.8004C13.8049 13.2546 13.7931 14.2746 13.7931 14.2746C13.7931 14.2746 13.9849 17.0847 13.3452 17.4338C12.906 17.6733 12.3037 17.1844 11.0104 14.9496C10.3477 13.8049 9.84741 12.5396 9.84741 12.5396C9.84741 12.5396 9.75093 12.3031 9.57887 12.1766C9.37004 12.0234 9.07826 11.9745 9.07826 11.9745L5.98256 11.9948C5.98256 11.9948 5.51784 12.0078 5.34725 12.2098C5.19548 12.3895 5.33519 12.7613 5.33519 12.7613C5.33519 12.7613 7.7588 18.4315 10.503 21.289C13.0193 23.9088 15.8767 23.7367 15.8767 23.7367Z" fill="white"/>
</g>
<defs>
<clipPath id="clip0_12_57">
<rect width="33" height="33" fill="white"/>
</clipPath>
</defs>
</svg>
