<svg width="17" height="17" viewBox="0 0 17 17" fill="none" xmlns="http://www.w3.org/2000/svg">
<g clip-path="url(#clip0_12_54)">
<path d="M8.50212 0H8.49788C3.81119 0 0 3.81225 0 8.5C0 10.3594 0.59925 12.0828 1.61819 13.4821L0.558875 16.6398L3.82606 15.5954C5.17013 16.4858 6.77344 17 8.50212 17C13.1888 17 17 13.1867 17 8.5C17 3.81331 13.1888 0 8.50212 0Z" fill="#4CAF50"/>
<path d="M13.4483 12.0031C13.2433 12.5821 12.4294 13.0624 11.7802 13.2026C11.3361 13.2972 10.756 13.3726 8.80308 12.563C6.30514 11.5281 4.69652 8.98982 4.57114 8.82513C4.45108 8.66044 3.56177 7.48107 3.56177 6.26132C3.56177 5.04157 4.18121 4.44763 4.43089 4.19263C4.63596 3.98332 4.97489 3.8877 5.30002 3.8877C5.40521 3.8877 5.49977 3.89301 5.58477 3.89726C5.83446 3.90788 5.95983 3.92276 6.12452 4.31695C6.32958 4.81101 6.82896 6.03076 6.88846 6.15613C6.94902 6.28151 7.00958 6.45151 6.92458 6.6162C6.84489 6.7862 6.77477 6.86163 6.64939 7.00613C6.52402 7.15063 6.40502 7.26113 6.27964 7.41626C6.16489 7.55119 6.03527 7.6957 6.17977 7.94538C6.32427 8.18976 6.82364 9.00469 7.55889 9.65919C8.50771 10.5039 9.27696 10.7738 9.55214 10.8885C9.75721 10.9735 10.0016 10.9533 10.1514 10.7939C10.3416 10.5889 10.5764 10.2489 10.8155 9.9142C10.9855 9.67407 11.2001 9.64432 11.4253 9.72932C11.6548 9.80901 12.8693 10.4093 13.119 10.5336C13.3686 10.659 13.5333 10.7185 13.5939 10.8237C13.6534 10.9289 13.6534 11.4229 13.4483 12.0031Z" fill="#FAFAFA"/>
</g>
<defs>
<clipPath id="clip0_12_54">
<rect width="17" height="17" fill="white"/>
</clipPath>
</defs>
</svg>
