<svg width="32" height="33" viewBox="0 0 32 33" fill="none" xmlns="http://www.w3.org/2000/svg">
<g clip-path="url(#clip0_12_62)">
<path d="M16 33C24.8366 33 32 25.6127 32 16.5C32 7.3873 24.8366 0 16 0C7.16344 0 0 7.3873 0 16.5C0 25.6127 7.16344 33 16 33Z" fill="#E53935"/>
<path d="M6.11043 21.1976C6.53288 22.5875 7.82525 22.8416 7.91146 22.8905C10.0384 23.4279 21.9601 23.4294 24.119 22.8905C25.5976 22.494 25.8692 21.2776 25.92 21.1976C26.483 18.4197 26.5201 14.7981 25.8942 11.6459L25.92 11.8027C25.4976 10.4129 24.2052 10.1586 24.119 10.1098C22.0205 9.58126 10.0677 9.56127 7.91146 10.1098C6.43287 10.5072 6.16131 11.7227 6.11043 11.8027C5.50779 14.7222 5.47762 18.0719 6.11043 21.1976ZM13.9439 19.4201V13.5883L19.3461 16.5085L13.9439 19.4201Z" fill="white"/>
</g>
<defs>
<clipPath id="clip0_12_62">
<rect width="32" height="33" fill="white"/>
</clipPath>
</defs>
</svg>
